<svg xmlns="http://www.w3.org/2000/svg" viewBox="0 0 240 240" role="img" aria-label="Ruben Van Ruysseveldt">
  <rect width="240" height="240" rx="46" fill="#0B0B0C"/>
  <g transform="translate(120 120) scale(0.86) translate(-120 -120)">
  <circle cx="120" cy="120" r="112" fill="none" stroke="#F4F3EF" stroke-width="3"/>
  <polygon points="120.00,42.00 187.55,81.00 187.55,159.00 120.00,198.00 52.45,159.00 52.45,81.00" fill="none" stroke="#F4F3EF" stroke-width="3" stroke-linejoin="miter"/>
  <g transform="translate(78.68 170.84) scale(0.7039)"><path d="M44.20-67.20L44.60-70.60Q55.60-70.20 61.80-69.70Q68-69.20 71.70-68.80Q75.40-68.40 78.80-67.80L78.80-67.80Q84.80-66.60 89.20-64.90Q93.60-63.20 96.30-60.20Q99-57.20 100.20-52.70Q101.40-48.20 100.80-41.40L100.80-41.40L99.20-21Q98.80-15 99.90-9.70Q101-4.40 105.60-4.60L105.60-4.60Q109.20-4.80 111.90-9.10Q114.60-13.40 117.40-21.40L117.40-21.40L118.40-24.20L123-24.20L122.20-21.60Q118.80-9.40 113.30-3.30Q107.80 2.80 98.40 2.80L98.40 2.80Q88.60 2.80 84.20-3.10Q79.80-9 80.40-16.40L80.40-16.40L82-38.80Q82.80-49.40 80.50-55.60Q78.20-61.80 69.90-64.50Q61.60-67.20 44.20-67.20L44.20-67.20ZM50.60-67.20L42.60-67.20L43.60-71.20L52.60-71.20Q67-71.20 76.80-74.50Q86.60-77.80 92.50-83.80Q98.40-89.80 101.10-97.60Q103.80-105.40 103.80-114.40L103.80-114.40Q103.80-126.20 97.90-131.90Q92-137.60 78.40-137.60L78.40-137.60Q69.60-137.60 66-134.10Q62.40-130.60 59.60-120.40L59.60-120.40L33.20-21.20Q31.60-15 31.40-11.30Q31.20-7.60 34.30-5.90Q37.40-4.20 45-4L45-4L44.20 0Q39.60-0.40 33-0.50Q26.40-0.60 19.40-0.60L19.40-0.60Q11.60-0.60 4.60-0.50Q-2.40-0.40-6.60 0L-6.60 0L-5.80-4Q1-4.40 4.80-5.60Q8.60-6.80 10.80-10.40Q13-14 14.80-21.20L14.80-21.20L41.20-120.40Q43-126.80 42.90-130.50Q42.80-134.20 39.80-135.90Q36.80-137.60 29.40-137.60L29.40-137.60L30.40-141.60Q33.20-141.40 37.20-141.30Q41.20-141.20 45.90-141.10Q50.60-141 55-141L55-141Q62.20-141 69.50-141.20Q76.80-141.40 84.20-141.40L84.20-141.40Q104.40-141.40 114.20-133.70Q124-126 124-113.20L124-113.20Q124-99.80 114.70-89.50Q105.40-79.20 88.90-73.20Q72.40-67.20 50.60-67.20L50.60-67.20Z" fill="#F4F3EF"/></g>
  </g>
</svg>
