<svg xmlns="http://www.w3.org/2000/svg" viewBox="0 0 240 240" role="img" aria-label="Ruben Van Ruysseveldt — Photography">
  <circle cx="120" cy="120" r="116" fill="none" stroke="#F4F3EF" stroke-width="1.5"/>
  <circle cx="120" cy="120" r="88" fill="none" stroke="#F4F3EF" stroke-width="1"/>
  <g fill="#F4F3EF"><g transform="translate(35.43 64.78) rotate(-56.86)"><path d="M-1.45 0L-2.68 0L-2.68-8L0.19-8Q1.11-8 1.73-7.68Q2.35-7.36 2.66-6.79Q2.96-6.23 2.96-5.49Q2.96-4.75 2.65-4.19Q2.34-3.64 1.73-3.33Q1.11-3.02 0.18-3.02L-1.97-3.02L-1.97-4.07L0.06-4.07Q0.65-4.07 1.02-4.24Q1.38-4.41 1.55-4.73Q1.72-5.04 1.72-5.49Q1.72-5.94 1.55-6.27Q1.38-6.60 1.01-6.78Q0.65-6.96 0.05-6.96L-1.45-6.96L-1.45 0M3.26 0L1.87 0L-0.07-3.61L1.29-3.61"/></g><g transform="translate(41.83 56.04) rotate(-50.71)"><path d="M0.01 0.12Q-0.96 0.12-1.68-0.25Q-2.40-0.62-2.79-1.26Q-3.19-1.91-3.19-2.75L-3.19-8L-1.96-8L-1.96-2.85Q-1.96-2.31-1.72-1.89Q-1.48-1.47-1.04-1.23Q-0.60-0.99 0.01-0.99Q0.61-0.99 1.04-1.23Q1.48-1.47 1.72-1.89Q1.96-2.31 1.96-2.85L1.96-8L3.19-8L3.19-2.75Q3.19-1.91 2.79-1.26Q2.40-0.62 1.68-0.25Q0.96 0.12 0.01 0.12"/></g><g transform="translate(49.16 48.01) rotate(-44.54)"><path d="M0.35 0L-2.73 0L-2.73-8L0.22-8Q1.08-8 1.64-7.72Q2.19-7.44 2.47-6.97Q2.74-6.49 2.74-5.90Q2.74-5.40 2.56-5.06Q2.38-4.72 2.07-4.51Q1.76-4.31 1.39-4.21L1.39-4.13Q1.79-4.11 2.17-3.88Q2.55-3.64 2.80-3.20Q3.05-2.77 3.05-2.15Q3.05-1.55 2.77-1.06Q2.48-0.57 1.88-0.28Q1.29 0 0.35 0M-1.50-3.59L-1.50-1.05L0.23-1.05Q1.09-1.05 1.46-1.39Q1.84-1.72 1.84-2.21Q1.84-2.60 1.65-2.91Q1.46-3.22 1.11-3.41Q0.76-3.59 0.28-3.59L-1.50-3.59M-1.50-6.96L-1.50-4.54L0.10-4.54Q0.51-4.54 0.84-4.69Q1.16-4.85 1.35-5.13Q1.54-5.42 1.54-5.80Q1.54-6.29 1.20-6.63Q0.85-6.96 0.14-6.96"/></g><g transform="translate(56.73 41.28) rotate(-38.79)"><path d="M2.64 0L-2.43 0L-2.43-8L2.61-8L2.61-6.95L-1.21-6.95L-1.21-4.57L2.33-4.57L2.33-3.52L-1.21-3.52L-1.21-1.05L2.64-1.05"/></g><g transform="translate(65.39 35.04) rotate(-32.73)"><path d="M-2.03 0L-3.27 0L-3.27-8L-1.86-8L1.15-3.24Q1.30-3 1.49-2.67Q1.68-2.35 1.89-1.94Q2.10-1.53 2.30-1.04L2.15-1.04Q2.10-1.50 2.08-1.95Q2.05-2.40 2.04-2.79Q2.03-3.18 2.03-3.45L2.03-8L3.27-8L3.27 0L1.86 0L-0.85-4.26Q-1.06-4.61-1.27-4.96Q-1.47-5.32-1.72-5.78Q-1.97-6.25-2.33-6.91L-2.14-6.91Q-2.11-6.32-2.09-5.81Q-2.06-5.30-2.05-4.90Q-2.03-4.51-2.03-4.27"/></g><g transform="translate(80.75 26.94) rotate(-22.87)"><path d="M0.77 0L-0.73 0L-3.63-8L-2.30-8L-0.75-3.55Q-0.57-3.03-0.35-2.29Q-0.13-1.54 0.16-0.53L-0.10-0.53Q0.18-1.56 0.40-2.30Q0.62-3.03 0.78-3.55L2.30-8L3.63-8"/></g><g transform="translate(91.10 23.22) rotate(-16.63)"><path d="M-2.30 0L-3.63 0L-0.78-8L0.73-8L3.63 0L2.30 0L0.74-4.45Q0.56-5 0.34-5.73Q0.12-6.47-0.16-7.50L0.09-7.50Q-0.19-6.46-0.41-5.71Q-0.62-4.97-0.79-4.45L-2.30 0M2.08-2.11L-2.08-2.11L-2.08-3.13L2.08-3.13"/></g><g transform="translate(102.05 20.61) rotate(-10.24)"><path d="M-2.03 0L-3.27 0L-3.27-8L-1.86-8L1.15-3.24Q1.30-3 1.49-2.67Q1.68-2.35 1.89-1.94Q2.10-1.53 2.30-1.04L2.15-1.04Q2.10-1.50 2.08-1.95Q2.05-2.40 2.04-2.79Q2.03-3.18 2.03-3.45L2.03-8L3.27-8L3.27 0L1.86 0L-0.85-4.26Q-1.06-4.61-1.27-4.96Q-1.47-5.32-1.72-5.78Q-1.97-6.25-2.33-6.91L-2.14-6.91Q-2.11-6.32-2.09-5.81Q-2.06-5.30-2.05-4.90Q-2.03-4.51-2.03-4.27"/></g><g transform="translate(119.01 19.00) rotate(-0.56)"><path d="M-1.45 0L-2.68 0L-2.68-8L0.19-8Q1.11-8 1.73-7.68Q2.35-7.36 2.66-6.79Q2.96-6.23 2.96-5.49Q2.96-4.75 2.65-4.19Q2.34-3.64 1.73-3.33Q1.11-3.02 0.18-3.02L-1.97-3.02L-1.97-4.07L0.06-4.07Q0.65-4.07 1.02-4.24Q1.38-4.41 1.55-4.73Q1.72-5.04 1.72-5.49Q1.72-5.94 1.55-6.27Q1.38-6.60 1.01-6.78Q0.65-6.96 0.05-6.96L-1.45-6.96L-1.45 0M3.26 0L1.87 0L-0.07-3.61L1.29-3.61"/></g><g transform="translate(129.83 19.48) rotate(5.58)"><path d="M0.01 0.12Q-0.96 0.12-1.68-0.25Q-2.40-0.62-2.79-1.26Q-3.19-1.91-3.19-2.75L-3.19-8L-1.96-8L-1.96-2.85Q-1.96-2.31-1.72-1.89Q-1.48-1.47-1.04-1.23Q-0.60-0.99 0.01-0.99Q0.61-0.99 1.04-1.23Q1.48-1.47 1.72-1.89Q1.96-2.31 1.96-2.85L1.96-8L3.19-8L3.19-2.75Q3.19-1.91 2.79-1.26Q2.40-0.62 1.68-0.25Q0.96 0.12 0.01 0.12"/></g><g transform="translate(140.79 21.16) rotate(11.88)"><path d="M0.62 0L-0.61 0L-0.61-3.19L-3.56-8L-2.13-8L-0.62-5.45Q-0.37-5.03-0.18-4.65Q0.01-4.26 0.21-3.69L-0.18-3.69Q0.03-4.27 0.22-4.66Q0.41-5.05 0.64-5.45L2.13-8L3.56-8L0.62-3.19"/></g><g transform="translate(151.01 23.88) rotate(17.88)"><path d="M0.02 0.13Q-0.88 0.13-1.54-0.15Q-2.20-0.44-2.57-0.96Q-2.95-1.49-2.98-2.22L-1.75-2.22Q-1.72-1.79-1.47-1.50Q-1.23-1.22-0.84-1.08Q-0.44-0.94 0.01-0.94Q0.52-0.94 0.92-1.10Q1.31-1.26 1.54-1.55Q1.78-1.84 1.78-2.23Q1.78-2.58 1.57-2.80Q1.37-3.02 1.03-3.17Q0.69-3.32 0.26-3.43L-0.68-3.69Q-1.66-3.95-2.21-4.47Q-2.76-4.98-2.76-5.81Q-2.76-6.50-2.39-7.02Q-2.02-7.54-1.37-7.82Q-0.73-8.11 0.07-8.11Q0.89-8.11 1.52-7.82Q2.15-7.54 2.50-7.04Q2.86-6.54 2.88-5.90L1.68-5.90Q1.62-6.45 1.18-6.75Q0.73-7.05 0.05-7.05Q-0.44-7.05-0.79-6.90Q-1.15-6.75-1.35-6.48Q-1.54-6.21-1.54-5.88Q-1.54-5.49-1.31-5.26Q-1.08-5.03-0.74-4.89Q-0.41-4.75-0.10-4.67L0.68-4.47Q1.06-4.37 1.47-4.21Q1.87-4.04 2.22-3.78Q2.56-3.52 2.77-3.14Q2.98-2.76 2.98-2.21Q2.98-1.54 2.63-1Q2.29-0.47 1.62-0.17Q0.96 0.13 0.02 0.13"/></g><g transform="translate(160.64 27.54) rotate(23.73)"><path d="M0.02 0.13Q-0.88 0.13-1.54-0.15Q-2.20-0.44-2.57-0.96Q-2.95-1.49-2.98-2.22L-1.75-2.22Q-1.72-1.79-1.47-1.50Q-1.23-1.22-0.84-1.08Q-0.44-0.94 0.01-0.94Q0.52-0.94 0.92-1.10Q1.31-1.26 1.54-1.55Q1.78-1.84 1.78-2.23Q1.78-2.58 1.57-2.80Q1.37-3.02 1.03-3.17Q0.69-3.32 0.26-3.43L-0.68-3.69Q-1.66-3.95-2.21-4.47Q-2.76-4.98-2.76-5.81Q-2.76-6.50-2.39-7.02Q-2.02-7.54-1.37-7.82Q-0.73-8.11 0.07-8.11Q0.89-8.11 1.52-7.82Q2.15-7.54 2.50-7.04Q2.86-6.54 2.88-5.90L1.68-5.90Q1.62-6.45 1.18-6.75Q0.73-7.05 0.05-7.05Q-0.44-7.05-0.79-6.90Q-1.15-6.75-1.35-6.48Q-1.54-6.21-1.54-5.88Q-1.54-5.49-1.31-5.26Q-1.08-5.03-0.74-4.89Q-0.41-4.75-0.10-4.67L0.68-4.47Q1.06-4.37 1.47-4.21Q1.87-4.04 2.22-3.78Q2.56-3.52 2.77-3.14Q2.98-2.76 2.98-2.21Q2.98-1.54 2.63-1Q2.29-0.47 1.62-0.17Q0.96 0.13 0.02 0.13"/></g><g transform="translate(169.65 32.04) rotate(29.44)"><path d="M2.64 0L-2.43 0L-2.43-8L2.61-8L2.61-6.95L-1.21-6.95L-1.21-4.57L2.33-4.57L2.33-3.52L-1.21-3.52L-1.21-1.05L2.64-1.05"/></g><g transform="translate(178.44 37.62) rotate(35.35)"><path d="M0.77 0L-0.73 0L-3.63-8L-2.30-8L-0.75-3.55Q-0.57-3.03-0.35-2.29Q-0.13-1.54 0.16-0.53L-0.10-0.53Q0.18-1.56 0.40-2.30Q0.62-3.03 0.78-3.55L2.30-8L3.63-8"/></g><g transform="translate(186.61 44.08) rotate(41.26)"><path d="M2.64 0L-2.43 0L-2.43-8L2.61-8L2.61-6.95L-1.21-6.95L-1.21-4.57L2.33-4.57L2.33-3.52L-1.21-3.52L-1.21-1.05L2.64-1.05"/></g><g transform="translate(193.53 50.76) rotate(46.72)"><path d="M2.63 0L-2.22 0L-2.22-8L-1-8L-1-1.05L2.63-1.05"/></g><g transform="translate(200.18 58.59) rotate(52.55)"><path d="M-0.48 0L-2.46 0L-2.46-1.07L-0.55-1.07Q0.36-1.07 0.96-1.41Q1.56-1.75 1.86-2.41Q2.16-3.07 2.16-4.01Q2.16-4.95 1.87-5.60Q1.57-6.25 0.98-6.59Q0.39-6.93-0.48-6.93L-2.50-6.93L-2.50-8L-0.40-8Q0.78-8 1.62-7.52Q2.47-7.05 2.92-6.15Q3.37-5.26 3.37-4.01Q3.37-2.76 2.91-1.86Q2.46-0.97 1.60-0.48Q0.74 0-0.48 0M-3.08-8L-1.86-8L-1.86 0L-3.08 0"/></g><g transform="translate(206.26 67.46) rotate(58.66)"><path d="M-0.61-6.95L-3.11-6.95L-3.11-8L3.11-8L3.11-6.95L0.62-6.95L0.62 0L-0.61 0"/></g></g>
  <g fill="#F4F3EF"><g transform="translate(19.85 165.51) rotate(65.56)"><path d="M-1.13 0L-2.36 0L-2.36-8L2.62-8L2.62-6.95L-1.13-6.95L-1.13-4.38L2.26-4.38L2.26-3.33L-1.13-3.33"/></g><g transform="translate(26.76 178.37) rotate(57.95)"><path d="M0.76-8.38L1.82-8.38L-0.76 1.20L-1.82 1.20"/></g><g transform="translate(34.70 189.46) rotate(50.85)"><path d="M-0.02-8L1.40-8L1.40 0L0.18 0L0.18-6.89L0.13-6.89L-1.77-5.51L-1.77-6.74"/></g><g transform="translate(39.39 194.85) rotate(47.12)"><path d="M0 0.08Q-0.33 0.08-0.56-0.15Q-0.79-0.38-0.79-0.71Q-0.79-1.04-0.56-1.27Q-0.33-1.50 0-1.50Q0.33-1.50 0.56-1.27Q0.79-1.04 0.79-0.71Q0.79-0.38 0.56-0.15Q0.33 0.08 0 0.08"/></g><g transform="translate(45.39 200.83) rotate(42.71)"><path d="M3.02-1.56L-3-1.56L-3-2.55L0.45-8L1.24-8L1.24-6.55L0.74-6.55L-1.72-2.66L-1.72-2.60L3.02-2.60L3.02-1.56M1.97 0L0.79 0L0.79-1.85L0.80-2.31L0.80-8L1.97-8"/></g><g transform="translate(56.76 210.00) rotate(35.10)"><path d="M0-3.01Q-0.33-3.01-0.56-3.24Q-0.79-3.47-0.79-3.80Q-0.79-4.13-0.56-4.36Q-0.33-4.59 0-4.59Q0.33-4.59 0.56-4.36Q0.79-4.13 0.79-3.80Q0.79-3.47 0.56-3.24Q0.33-3.01 0-3.01"/></g><g transform="translate(69.16 217.55) rotate(27.53)"><path d="M-1.42 0L-2.64 0L-2.64-8L0.23-8Q1.15-8 1.77-7.66Q2.38-7.32 2.69-6.73Q3-6.14 3-5.40Q3-4.66 2.69-4.07Q2.38-3.49 1.76-3.14Q1.14-2.80 0.21-2.80L-1.75-2.80L-1.75-3.84L0.10-3.84Q0.69-3.84 1.05-4.04Q1.42-4.25 1.59-4.60Q1.76-4.96 1.76-5.40Q1.76-5.85 1.59-6.21Q1.42-6.56 1.05-6.76Q0.68-6.96 0.09-6.96L-1.42-6.96"/></g><g transform="translate(78.99 222.07) rotate(21.89)"><path d="M-1.98 0L-3.21 0L-3.21-8L-1.98-8L-1.98-4.62L1.98-4.62L1.98-8L3.21-8L3.21 0L1.98 0L1.98-3.57L-1.98-3.57"/></g><g transform="translate(89.88 225.79) rotate(15.89)"><path d="M0.01 0.11Q-1.03 0.11-1.85-0.38Q-2.67-0.88-3.14-1.80Q-3.61-2.72-3.61-4Q-3.61-5.28-3.14-6.20Q-2.67-7.12-1.85-7.62Q-1.03-8.11 0.01-8.11Q1.04-8.11 1.86-7.62Q2.67-7.12 3.14-6.20Q3.61-5.28 3.61-4Q3.61-2.72 3.14-1.80Q2.67-0.88 1.86-0.38Q1.04 0.11 0.01 0.11M0.01-1.01Q0.69-1.01 1.23-1.35Q1.77-1.69 2.08-2.36Q2.40-3.03 2.40-4Q2.40-4.97 2.08-5.64Q1.77-6.31 1.23-6.65Q0.69-6.99 0.01-6.99Q-0.68-6.99-1.22-6.65Q-1.77-6.31-2.08-5.64Q-2.40-4.97-2.40-4Q-2.40-3.03-2.08-2.36Q-1.77-1.70-1.22-1.35Q-0.68-1.01 0.01-1.01"/></g><g transform="translate(100.59 228.27) rotate(10.16)"><path d="M-0.61-6.95L-3.11-6.95L-3.11-8L3.11-8L3.11-6.95L0.62-6.95L0.62 0L-0.61 0"/></g><g transform="translate(111.51 229.67) rotate(4.43)"><path d="M0.01 0.11Q-1.03 0.11-1.85-0.38Q-2.67-0.88-3.14-1.80Q-3.61-2.72-3.61-4Q-3.61-5.28-3.14-6.20Q-2.67-7.12-1.85-7.62Q-1.03-8.11 0.01-8.11Q1.04-8.11 1.86-7.62Q2.67-7.12 3.14-6.20Q3.61-5.28 3.61-4Q3.61-2.72 3.14-1.80Q2.67-0.88 1.86-0.38Q1.04 0.11 0.01 0.11M0.01-1.01Q0.69-1.01 1.23-1.35Q1.77-1.69 2.08-2.36Q2.40-3.03 2.40-4Q2.40-4.97 2.08-5.64Q1.77-6.31 1.23-6.65Q0.69-6.99 0.01-6.99Q-0.68-6.99-1.22-6.65Q-1.77-6.31-2.08-5.64Q-2.40-4.97-2.40-4Q-2.40-3.03-2.08-2.36Q-1.77-1.70-1.22-1.35Q-0.68-1.01 0.01-1.01"/></g><g transform="translate(123.03 229.96) rotate(-1.58)"><path d="M0.14 0.11Q-0.95 0.11-1.77-0.39Q-2.59-0.89-3.05-1.81Q-3.50-2.73-3.50-4Q-3.50-5.27-3.04-6.20Q-2.58-7.12-1.76-7.61Q-0.95-8.11 0.08-8.11Q0.73-8.11 1.29-7.92Q1.85-7.73 2.29-7.38Q2.74-7.03 3.02-6.54Q3.31-6.05 3.41-5.47L2.15-5.47Q2.04-5.82 1.86-6.10Q1.67-6.39 1.41-6.58Q1.15-6.78 0.82-6.89Q0.49-6.99 0.09-6.99Q-0.58-6.99-1.12-6.65Q-1.66-6.31-1.98-5.64Q-2.29-4.97-2.29-4Q-2.29-3.03-1.98-2.37Q-1.66-1.70-1.11-1.36Q-0.57-1.01 0.14-1.01Q0.79-1.01 1.27-1.27Q1.75-1.53 2.01-2.01Q2.28-2.49 2.28-3.15L2.60-3.09L0.32-3.09L0.32-4.10L3.48-4.10L3.48-3.19Q3.48-2.18 3.05-1.44Q2.61-0.70 1.86-0.30Q1.11 0.11 0.14 0.11"/></g><g transform="translate(133.87 229.12) rotate(-7.24)"><path d="M-1.45 0L-2.68 0L-2.68-8L0.19-8Q1.11-8 1.73-7.68Q2.35-7.36 2.66-6.79Q2.96-6.23 2.96-5.49Q2.96-4.75 2.65-4.19Q2.34-3.64 1.73-3.33Q1.11-3.02 0.18-3.02L-1.97-3.02L-1.97-4.07L0.06-4.07Q0.65-4.07 1.02-4.24Q1.38-4.41 1.55-4.73Q1.72-5.04 1.72-5.49Q1.72-5.94 1.55-6.27Q1.38-6.60 1.01-6.78Q0.65-6.96 0.05-6.96L-1.45-6.96L-1.45 0M3.26 0L1.87 0L-0.07-3.61L1.29-3.61"/></g><g transform="translate(144.36 227.27) rotate(-12.80)"><path d="M-2.30 0L-3.63 0L-0.78-8L0.73-8L3.63 0L2.30 0L0.74-4.45Q0.56-5 0.34-5.73Q0.12-6.47-0.16-7.50L0.09-7.50Q-0.19-6.46-0.41-5.71Q-0.62-4.97-0.79-4.45L-2.30 0M2.08-2.11L-2.08-2.11L-2.08-3.13L2.08-3.13"/></g><g transform="translate(154.60 224.42) rotate(-18.33)"><path d="M-1.42 0L-2.64 0L-2.64-8L0.23-8Q1.15-8 1.77-7.66Q2.38-7.32 2.69-6.73Q3-6.14 3-5.40Q3-4.66 2.69-4.07Q2.38-3.49 1.76-3.14Q1.14-2.80 0.21-2.80L-1.75-2.80L-1.75-3.84L0.10-3.84Q0.69-3.84 1.05-4.04Q1.42-4.25 1.59-4.60Q1.76-4.96 1.76-5.40Q1.76-5.85 1.59-6.21Q1.42-6.56 1.05-6.76Q0.68-6.96 0.09-6.96L-1.42-6.96"/></g><g transform="translate(164.69 220.51) rotate(-23.97)"><path d="M-1.98 0L-3.21 0L-3.21-8L-1.98-8L-1.98-4.62L1.98-4.62L1.98-8L3.21-8L3.21 0L1.98 0L1.98-3.57L-1.98-3.57"/></g><g transform="translate(174.61 215.49) rotate(-29.76)"><path d="M0.62 0L-0.61 0L-0.61-3.19L-3.56-8L-2.13-8L-0.62-5.45Q-0.37-5.03-0.18-4.65Q0.01-4.26 0.21-3.69L-0.18-3.69Q0.03-4.27 0.22-4.66Q0.41-5.05 0.64-5.45L2.13-8L3.56-8L0.62-3.19"/></g><g transform="translate(186.95 207.28) rotate(-37.49)"><path d="M0-3.01Q-0.33-3.01-0.56-3.24Q-0.79-3.47-0.79-3.80Q-0.79-4.13-0.56-4.36Q-0.33-4.59 0-4.59Q0.33-4.59 0.56-4.36Q0.79-4.13 0.79-3.80Q0.79-3.47 0.56-3.24Q0.33-3.01 0-3.01"/></g><g transform="translate(197.80 197.76) rotate(-45.01)"><path d="M0.01 0.11Q-0.81 0.11-1.44-0.17Q-2.07-0.45-2.44-0.95Q-2.80-1.44-2.83-2.09L-1.58-2.09Q-1.56-1.74-1.35-1.48Q-1.13-1.22-0.78-1.08Q-0.44-0.95-0.01-0.95Q0.47-0.95 0.83-1.11Q1.19-1.27 1.39-1.56Q1.60-1.85 1.60-2.24Q1.60-2.64 1.40-2.95Q1.19-3.25 0.81-3.42Q0.42-3.59-0.13-3.59L-0.82-3.59L-0.82-4.59L-0.13-4.59Q0.31-4.59 0.64-4.75Q0.98-4.91 1.17-5.19Q1.36-5.48 1.36-5.86Q1.36-6.23 1.19-6.50Q1.03-6.78 0.73-6.93Q0.42-7.08 0.02-7.08Q-0.37-7.08-0.71-6.94Q-1.04-6.80-1.25-6.54Q-1.46-6.28-1.48-5.92L-2.66-5.92Q-2.64-6.57-2.27-7.06Q-1.91-7.56-1.31-7.83Q-0.70-8.11 0.04-8.11Q0.81-8.11 1.37-7.81Q1.94-7.51 2.25-7.01Q2.55-6.52 2.55-5.93Q2.55-5.25 2.18-4.79Q1.80-4.32 1.17-4.16L1.17-4.10Q1.70-4.02 2.08-3.76Q2.45-3.50 2.65-3.10Q2.84-2.70 2.84-2.20Q2.84-1.54 2.48-1.02Q2.11-0.49 1.47-0.19Q0.83 0.11 0.01 0.11"/></g><g transform="translate(204.52 190.40) rotate(-50.21)"><path d="M-0.06 0.11Q-0.80 0.11-1.39-0.18Q-1.97-0.46-2.32-0.96Q-2.67-1.46-2.69-2.09L-1.50-2.09Q-1.47-1.76-1.28-1.49Q-1.08-1.22-0.76-1.07Q-0.44-0.92-0.06-0.92Q0.40-0.92 0.75-1.13Q1.11-1.34 1.31-1.72Q1.51-2.09 1.51-2.57Q1.51-3.05 1.30-3.43Q1.09-3.82 0.73-4.03Q0.36-4.25-0.11-4.25Q-0.48-4.25-0.84-4.12Q-1.21-4-1.43-3.80L-2.55-3.96L-2.11-8L2.31-8L2.31-6.96L-1.08-6.96L-1.33-4.72L-1.29-4.72Q-1.06-4.95-0.66-5.10Q-0.27-5.25 0.17-5.25Q0.72-5.25 1.18-5.06Q1.65-4.86 1.99-4.50Q2.33-4.14 2.52-3.66Q2.71-3.17 2.71-2.59Q2.71-1.81 2.36-1.20Q2-0.59 1.38-0.24Q0.75 0.11-0.06 0.11"/></g><g transform="translate(214.69 175.98) rotate(-59.41)"><path d="M-2.94 0L-4.13 0L-4.13-8L-2.33-8L-0.58-3.41Q-0.51-3.21-0.41-2.90Q-0.32-2.58-0.22-2.22Q-0.12-1.85-0.02-1.50Q0.07-1.14 0.14-0.86L-0.12-0.86Q-0.05-1.13 0.04-1.48Q0.13-1.83 0.23-2.20Q0.34-2.56 0.43-2.88Q0.53-3.21 0.60-3.41L2.32-8L4.14-8L4.14 0L2.92 0L2.92-4.31Q2.92-4.55 2.92-4.90Q2.93-5.24 2.94-5.63Q2.95-6.01 2.95-6.40Q2.96-6.79 2.97-7.15L3.06-7.15Q2.95-6.76 2.83-6.35Q2.70-5.93 2.58-5.54Q2.46-5.16 2.35-4.84Q2.24-4.52 2.16-4.31L0.52 0L-0.52 0L-2.18-4.31Q-2.26-4.51-2.37-4.83Q-2.47-5.14-2.60-5.52Q-2.72-5.91-2.85-6.32Q-2.98-6.74-3.11-7.15L-3-7.15Q-2.99-6.83-2.98-6.44Q-2.97-6.06-2.96-5.67Q-2.96-5.27-2.95-4.92Q-2.94-4.57-2.94-4.31"/></g><g transform="translate(220.73 164.21) rotate(-66.30)"><path d="M-2.94 0L-4.13 0L-4.13-8L-2.33-8L-0.58-3.41Q-0.51-3.21-0.41-2.90Q-0.32-2.58-0.22-2.22Q-0.12-1.85-0.02-1.50Q0.07-1.14 0.14-0.86L-0.12-0.86Q-0.05-1.13 0.04-1.48Q0.13-1.83 0.23-2.20Q0.34-2.56 0.43-2.88Q0.53-3.21 0.60-3.41L2.32-8L4.14-8L4.14 0L2.92 0L2.92-4.31Q2.92-4.55 2.92-4.90Q2.93-5.24 2.94-5.63Q2.95-6.01 2.95-6.40Q2.96-6.79 2.97-7.15L3.06-7.15Q2.95-6.76 2.83-6.35Q2.70-5.93 2.58-5.54Q2.46-5.16 2.35-4.84Q2.24-4.52 2.16-4.31L0.52 0L-0.52 0L-2.18-4.31Q-2.26-4.51-2.37-4.83Q-2.47-5.14-2.60-5.52Q-2.72-5.91-2.85-6.32Q-2.98-6.74-3.11-7.15L-3-7.15Q-2.99-6.83-2.98-6.44Q-2.97-6.06-2.96-5.67Q-2.96-5.27-2.95-4.92Q-2.94-4.57-2.94-4.31"/></g></g>
  <circle cx="15.5" cy="120" r="1.8" fill="#F4F3EF"/>
  <circle cx="224.5" cy="120" r="1.8" fill="#F4F3EF"/>
  <polygon points="120.00,56.00 175.43,88.00 175.43,152.00 120.00,184.00 64.57,152.00 64.57,88.00" fill="none" stroke="#F4F3EF" stroke-width="2" stroke-linejoin="miter"/>
  <g transform="translate(86.10 162.08) scale(0.5776)"><path d="M44.20-67.20L44.60-70.60Q55.60-70.20 61.80-69.70Q68-69.20 71.70-68.80Q75.40-68.40 78.80-67.80L78.80-67.80Q84.80-66.60 89.20-64.90Q93.60-63.20 96.30-60.20Q99-57.20 100.20-52.70Q101.40-48.20 100.80-41.40L100.80-41.40L99.20-21Q98.80-15 99.90-9.70Q101-4.40 105.60-4.60L105.60-4.60Q109.20-4.80 111.90-9.10Q114.60-13.40 117.40-21.40L117.40-21.40L118.40-24.20L123-24.20L122.20-21.60Q118.80-9.40 113.30-3.30Q107.80 2.80 98.40 2.80L98.40 2.80Q88.60 2.80 84.20-3.10Q79.80-9 80.40-16.40L80.40-16.40L82-38.80Q82.80-49.40 80.50-55.60Q78.20-61.80 69.90-64.50Q61.60-67.20 44.20-67.20L44.20-67.20ZM50.60-67.20L42.60-67.20L43.60-71.20L52.60-71.20Q67-71.20 76.80-74.50Q86.60-77.80 92.50-83.80Q98.40-89.80 101.10-97.60Q103.80-105.40 103.80-114.40L103.80-114.40Q103.80-126.20 97.90-131.90Q92-137.60 78.40-137.60L78.40-137.60Q69.60-137.60 66-134.10Q62.40-130.60 59.60-120.40L59.60-120.40L33.20-21.20Q31.60-15 31.40-11.30Q31.20-7.60 34.30-5.90Q37.40-4.20 45-4L45-4L44.20 0Q39.60-0.40 33-0.50Q26.40-0.60 19.40-0.60L19.40-0.60Q11.60-0.60 4.60-0.50Q-2.40-0.40-6.60 0L-6.60 0L-5.80-4Q1-4.40 4.80-5.60Q8.60-6.80 10.80-10.40Q13-14 14.80-21.20L14.80-21.20L41.20-120.40Q43-126.80 42.90-130.50Q42.80-134.20 39.80-135.90Q36.80-137.60 29.40-137.60L29.40-137.60L30.40-141.60Q33.20-141.40 37.20-141.30Q41.20-141.20 45.90-141.10Q50.60-141 55-141L55-141Q62.20-141 69.50-141.20Q76.80-141.40 84.20-141.40L84.20-141.40Q104.40-141.40 114.20-133.70Q124-126 124-113.20L124-113.20Q124-99.80 114.70-89.50Q105.40-79.20 88.90-73.20Q72.40-67.20 50.60-67.20L50.60-67.20Z" fill="#F4F3EF"/></g>
</svg>
